<mxfile host="app.diagrams.net" modified="2024-03-06T18:03:58.036Z" agent="Mozilla/5.0 (Windows NT 10.0; Win64; x64) AppleWebKit/537.36 (KHTML, like Gecko) Chrome/122.0.0.0 Safari/537.36" etag="e5ZCrSTx7VIoA4qDvinY" version="24.0.2" type="device">
  <diagram name="Página-1" id="ORGEdGHSQWwnUd3TqVFa">
    <mxGraphModel dx="733" dy="441" grid="1" gridSize="10" guides="1" tooltips="1" connect="1" arrows="1" fold="1" page="1" pageScale="1" pageWidth="827" pageHeight="1169" math="0" shadow="0">
      <root>
        <mxCell id="0" />
        <mxCell id="1" parent="0" />
        <mxCell id="aGF5Kshy0Y3J6yz298yk-5" style="edgeStyle=orthogonalEdgeStyle;rounded=0;orthogonalLoop=1;jettySize=auto;html=1;exitX=1;exitY=0.3333333333333333;exitDx=0;exitDy=0;exitPerimeter=0;entryX=0;entryY=0.5;entryDx=0;entryDy=0;" edge="1" parent="1" source="aGF5Kshy0Y3J6yz298yk-1" target="aGF5Kshy0Y3J6yz298yk-4">
          <mxGeometry relative="1" as="geometry" />
        </mxCell>
        <mxCell id="aGF5Kshy0Y3J6yz298yk-11" style="rounded=0;orthogonalLoop=1;jettySize=auto;html=1;exitX=1;exitY=1;exitDx=0;exitDy=0;exitPerimeter=0;entryX=0;entryY=0.5;entryDx=0;entryDy=0;" edge="1" parent="1" source="aGF5Kshy0Y3J6yz298yk-1" target="aGF5Kshy0Y3J6yz298yk-10">
          <mxGeometry relative="1" as="geometry" />
        </mxCell>
        <mxCell id="aGF5Kshy0Y3J6yz298yk-22" style="edgeStyle=orthogonalEdgeStyle;rounded=0;orthogonalLoop=1;jettySize=auto;html=1;entryX=0;entryY=0.5;entryDx=0;entryDy=0;" edge="1" parent="1" source="aGF5Kshy0Y3J6yz298yk-1" target="aGF5Kshy0Y3J6yz298yk-21">
          <mxGeometry relative="1" as="geometry">
            <Array as="points">
              <mxPoint x="125" y="170" />
            </Array>
          </mxGeometry>
        </mxCell>
        <mxCell id="aGF5Kshy0Y3J6yz298yk-1" value="Atendente" style="shape=umlActor;verticalLabelPosition=bottom;verticalAlign=top;html=1;outlineConnect=0;" vertex="1" parent="1">
          <mxGeometry x="110" y="30" width="30" height="60" as="geometry" />
        </mxCell>
        <mxCell id="aGF5Kshy0Y3J6yz298yk-20" style="edgeStyle=orthogonalEdgeStyle;rounded=0;orthogonalLoop=1;jettySize=auto;html=1;exitX=0.5;exitY=0.5;exitDx=0;exitDy=0;exitPerimeter=0;entryX=0;entryY=0.5;entryDx=0;entryDy=0;" edge="1" parent="1" source="aGF5Kshy0Y3J6yz298yk-2" target="aGF5Kshy0Y3J6yz298yk-19">
          <mxGeometry relative="1" as="geometry" />
        </mxCell>
        <mxCell id="aGF5Kshy0Y3J6yz298yk-29" style="edgeStyle=orthogonalEdgeStyle;rounded=0;orthogonalLoop=1;jettySize=auto;html=1;exitX=1;exitY=1;exitDx=0;exitDy=0;exitPerimeter=0;entryX=0;entryY=0.5;entryDx=0;entryDy=0;" edge="1" parent="1" source="aGF5Kshy0Y3J6yz298yk-2" target="aGF5Kshy0Y3J6yz298yk-27">
          <mxGeometry relative="1" as="geometry" />
        </mxCell>
        <mxCell id="aGF5Kshy0Y3J6yz298yk-2" value="Médico&lt;div&gt;&lt;br&gt;&lt;/div&gt;" style="shape=umlActor;verticalLabelPosition=bottom;verticalAlign=top;html=1;outlineConnect=0;" vertex="1" parent="1">
          <mxGeometry x="120" y="260" width="30" height="60" as="geometry" />
        </mxCell>
        <mxCell id="aGF5Kshy0Y3J6yz298yk-4" value="Verifica os horários disponíveis" style="ellipse;whiteSpace=wrap;html=1;" vertex="1" parent="1">
          <mxGeometry x="210" y="20" width="100" height="60" as="geometry" />
        </mxCell>
        <mxCell id="aGF5Kshy0Y3J6yz298yk-18" style="edgeStyle=orthogonalEdgeStyle;rounded=0;orthogonalLoop=1;jettySize=auto;html=1;entryX=1;entryY=0.5;entryDx=0;entryDy=0;" edge="1" parent="1" source="aGF5Kshy0Y3J6yz298yk-6" target="aGF5Kshy0Y3J6yz298yk-14">
          <mxGeometry relative="1" as="geometry" />
        </mxCell>
        <mxCell id="aGF5Kshy0Y3J6yz298yk-24" style="rounded=0;orthogonalLoop=1;jettySize=auto;html=1;exitX=0;exitY=1;exitDx=0;exitDy=0;exitPerimeter=0;entryX=1;entryY=0.5;entryDx=0;entryDy=0;" edge="1" parent="1" source="aGF5Kshy0Y3J6yz298yk-6" target="aGF5Kshy0Y3J6yz298yk-23">
          <mxGeometry relative="1" as="geometry" />
        </mxCell>
        <mxCell id="aGF5Kshy0Y3J6yz298yk-6" value="Paciente" style="shape=umlActor;verticalLabelPosition=bottom;verticalAlign=top;html=1;outlineConnect=0;" vertex="1" parent="1">
          <mxGeometry x="670" y="50" width="30" height="60" as="geometry" />
        </mxCell>
        <mxCell id="aGF5Kshy0Y3J6yz298yk-9" value="Faz o agendamento" style="ellipse;whiteSpace=wrap;html=1;" vertex="1" parent="1">
          <mxGeometry x="350" y="50" width="90" height="60" as="geometry" />
        </mxCell>
        <mxCell id="aGF5Kshy0Y3J6yz298yk-10" value="Verificar se o medico esta disponível" style="ellipse;whiteSpace=wrap;html=1;" vertex="1" parent="1">
          <mxGeometry x="210" y="80" width="100" height="60" as="geometry" />
        </mxCell>
        <mxCell id="aGF5Kshy0Y3J6yz298yk-12" style="rounded=0;orthogonalLoop=1;jettySize=auto;html=1;entryX=0.05;entryY=0.275;entryDx=0;entryDy=0;entryPerimeter=0;" edge="1" parent="1" source="aGF5Kshy0Y3J6yz298yk-4" target="aGF5Kshy0Y3J6yz298yk-9">
          <mxGeometry relative="1" as="geometry" />
        </mxCell>
        <mxCell id="aGF5Kshy0Y3J6yz298yk-13" style="rounded=0;orthogonalLoop=1;jettySize=auto;html=1;entryX=0.05;entryY=0.789;entryDx=0;entryDy=0;entryPerimeter=0;" edge="1" parent="1" source="aGF5Kshy0Y3J6yz298yk-10" target="aGF5Kshy0Y3J6yz298yk-9">
          <mxGeometry relative="1" as="geometry" />
        </mxCell>
        <mxCell id="aGF5Kshy0Y3J6yz298yk-15" style="edgeStyle=orthogonalEdgeStyle;rounded=0;orthogonalLoop=1;jettySize=auto;html=1;exitX=0;exitY=0.5;exitDx=0;exitDy=0;entryX=1;entryY=0.5;entryDx=0;entryDy=0;" edge="1" parent="1" source="aGF5Kshy0Y3J6yz298yk-14" target="aGF5Kshy0Y3J6yz298yk-9">
          <mxGeometry relative="1" as="geometry" />
        </mxCell>
        <mxCell id="aGF5Kshy0Y3J6yz298yk-14" value="Verifica a data e hora da consulta e qual medico é" style="ellipse;whiteSpace=wrap;html=1;" vertex="1" parent="1">
          <mxGeometry x="500" y="50" width="110" height="60" as="geometry" />
        </mxCell>
        <mxCell id="aGF5Kshy0Y3J6yz298yk-19" value="Atendimento do paciente" style="ellipse;whiteSpace=wrap;html=1;" vertex="1" parent="1">
          <mxGeometry x="210" y="255" width="120" height="70" as="geometry" />
        </mxCell>
        <mxCell id="aGF5Kshy0Y3J6yz298yk-26" style="rounded=0;orthogonalLoop=1;jettySize=auto;html=1;exitX=1;exitY=0;exitDx=0;exitDy=0;entryX=0.263;entryY=0.956;entryDx=0;entryDy=0;entryPerimeter=0;" edge="1" parent="1" source="aGF5Kshy0Y3J6yz298yk-21" target="aGF5Kshy0Y3J6yz298yk-9">
          <mxGeometry relative="1" as="geometry" />
        </mxCell>
        <mxCell id="aGF5Kshy0Y3J6yz298yk-21" value="Verificar com o paciente qual é o problema&amp;nbsp;" style="ellipse;whiteSpace=wrap;html=1;" vertex="1" parent="1">
          <mxGeometry x="210" y="140" width="100" height="60" as="geometry" />
        </mxCell>
        <mxCell id="aGF5Kshy0Y3J6yz298yk-25" style="edgeStyle=orthogonalEdgeStyle;rounded=0;orthogonalLoop=1;jettySize=auto;html=1;entryX=1;entryY=0.5;entryDx=0;entryDy=0;curved=1;" edge="1" parent="1" source="aGF5Kshy0Y3J6yz298yk-23" target="aGF5Kshy0Y3J6yz298yk-21">
          <mxGeometry relative="1" as="geometry" />
        </mxCell>
        <mxCell id="aGF5Kshy0Y3J6yz298yk-23" value="informa sobre sua situação ao atendente&amp;nbsp;" style="ellipse;whiteSpace=wrap;html=1;" vertex="1" parent="1">
          <mxGeometry x="510" y="110" width="90" height="60" as="geometry" />
        </mxCell>
        <mxCell id="aGF5Kshy0Y3J6yz298yk-30" style="edgeStyle=orthogonalEdgeStyle;rounded=0;orthogonalLoop=1;jettySize=auto;html=1;entryX=0.5;entryY=1;entryDx=0;entryDy=0;" edge="1" parent="1" source="aGF5Kshy0Y3J6yz298yk-27" target="aGF5Kshy0Y3J6yz298yk-9">
          <mxGeometry relative="1" as="geometry" />
        </mxCell>
        <mxCell id="aGF5Kshy0Y3J6yz298yk-27" value="verifica seus agendamentos" style="ellipse;whiteSpace=wrap;html=1;" vertex="1" parent="1">
          <mxGeometry x="220" y="325" width="90" height="60" as="geometry" />
        </mxCell>
      </root>
    </mxGraphModel>
  </diagram>
</mxfile>
